<svg xmlns="http://www.w3.org/2000/svg" width="1441" height="1025" fill="none">
  <defs/>
  <path fill="#29335C" d="M0 0h1440v1024H0z"/>
  <path fill="#334073" d="M341.674 249.489c-6.601 7.163-15.742-5.676-23.613-4.719-12.97 1.577-9.01 15.506-21.127 10.742-12.117-4.765-22.133 3.578-32.934 8.488h183c-9.56-3.195-27.652-8.488-39.148-8.488-16.467 0-11.675-20.58-25.166-23.953-27.031-6.758-33.866 10.176-41.012 17.93zM1315.67 313.489c-6.6 7.163-15.74-5.676-23.61-4.719-12.97 1.577-9.01 15.506-21.13 10.742-12.11-4.765-22.13 3.578-32.93 8.488h183c-9.56-3.195-27.65-8.488-39.15-8.488-16.46 0-11.67-20.58-25.16-23.953-27.03-6.758-33.87 10.176-41.02 17.93z"/>
  <path fill="#242D51" fill-rule="evenodd" d="M300 878.117l768.28 113.626s103.36.397 163.31-23.164c106.38-41.804 184.62-113.751 204.41-209.462-47.4-29.046-165.99-96.973-212.81-123.985C1181.44 635.818 971 815 300 878.117z" clip-rule="evenodd"/>
  <path fill="#334073" fill-rule="evenodd" d="M1223.19 635.132c-1.7 1.439 4.95 25.961 22.31 35.368 5.5 2.982 16.35 11.492 17 16.5 1.93 14.779-26.98 7.227-39.31 19C1184.7 742.741 1440 837.586 1440 837.586V716.555s-196.46-69.684-216.81-81.423z" clip-rule="evenodd"/>
  <path fill="#242D51" d="M0 687s207-195 331-284c12.667 9.333 56.589 104.503 106.5 161 81.696 92.477 159.374 120.081 273.5 167 113.831 46.797 210.5 46.333 296.5 63 114 8 432.5 51 432.5 51v179H0V687z"/>
  <path fill="#334073" fill-rule="evenodd" d="M894 759c-208-40-563-356-563-356s52.372 68.317 38 111c-8.624 25.612-38 4.314-38 34s48.782 36.027 66 40c37.5 8.654 48 42 0 33-32.864-6.162-53 12-53 45 0 46.046 94 69 179.5 77 364.263 34.083 699.25 91 883.5 91-7.03-1.177-305-35-513-75z" clip-rule="evenodd"/>
  <path fill="#29335C" fill-rule="evenodd" d="M1441 1024.62s-1-131.06-1-216.12c-473-19.94-910.381 39.735-910.381 39.735L725.5 1024.62H1441z" clip-rule="evenodd"/>
  <path fill="#2E3967" fill-rule="evenodd" d="M1308.5 1024S803 840 451 826 0 874.5 0 874.5V1024h1308.5z" clip-rule="evenodd"/>
  <path fill="#334073" fill-rule="evenodd" d="M757 970c-33.528 22.457-108.916 53.5-108.916 53.5h200.898s12.531-31.311 15.663-41.461c13.526-43.823 15.51-86.035 10.855-87.539-11.601-3.746-29.5-7.08-35.5-8.5-3.517 10.797-54.723 65.06-83 84z" clip-rule="evenodd"/>
  <path fill="#2E3967" fill-rule="evenodd" d="M782.5 839.5c-3.165-14.769 27-16.5 53.5-20.5 0 0-29.489.19-47.5 3-35.217 5.494-18.169 47.983-14.941 51.5 24.891 7.039 40.441 8 62.441 12-19.067-5.886-47.5-18-53.5-46z" clip-rule="evenodd"/>
  <path fill="#334073" d="M1077.25 371.588c-17.78 18.961-42.4-15.024-63.61-12.49-34.942 4.175-24.273 41.045-56.917 28.432C924.08 374.918 897.099 397.003 868 410h493c-25.75-8.457-74.49-22.47-105.46-22.47-44.37 0-31.46-54.476-67.8-63.404-72.82-17.887-91.24 26.937-110.49 47.462zM121 321.066c-14.802 13.464-51.51 10.811-82 24.5h267c-15.384-5.078-21.5-11-40-11-26.5 0-11-22.029-30-33.825-23.266-14.444-52.5-3-64 9.325-10.624 11.386-16.5-3.325-32.5-3.325-15.042 0-12.646 9-18.5 14.325z"/>
  <path fill="#14192E" d="M0 0h1440v1024H0z" opacity=".48"/>
</svg>
